<svg t="1693024431645" class="icon" viewBox="0 0 1024 1024" version="1.1" xmlns="http://www.w3.org/2000/svg" p-id="1066" width="200" height="200"><path d="M224 756.8a9.6 9.6 0 0 1 9.6-9.6c29.344-8.96 124.96-308.32 111.52-452.384h-32.608a28.992 28.992 0 0 1-28.8-28.8v-2.016a28.992 28.992 0 0 1 28.8-28.8h440.736a28.992 28.992 0 0 1 28.8 28.8v1.888a28.992 28.992 0 0 1-28.8 28.8h-31.552c-13.024 144.352 82.784 442.688 112.64 451.68a9.6 9.6 0 0 1 6.4 16.48c-15.2 47.008-205.376 59.68-307.904 59.68-106.816 0.064-308.832-13.696-308.832-65.728z m28.576-0.992a43.264 43.264 0 0 1-6.4 5.984c17.792 16.448 117.504 41.6 286.688 41.6 173.376 0 273.824-26.304 288-42.688a43.52 43.52 0 0 1-5.824-5.6c-44.32-50.08-122.944-328.864-112.576-460.224h-337.952c10.848 131.136-67.712 410.88-111.936 460.928z m50.304-491.808v1.888a9.6 9.6 0 0 0 9.6 9.6h440.768a9.6 9.6 0 0 0 9.6-9.6v-1.888a9.6 9.6 0 0 0-9.6-9.6h-440.736a9.6 9.6 0 0 0-9.632 9.6z m322.784 494.912a16.64 16.64 0 0 1-16.608-16.64v-29.824h-160v29.824a16.64 16.64 0 0 1-16.64 16.64h-13.504a16.64 16.64 0 0 1-16.608-16.64v-29.824h-14.592a48 48 0 0 1-48-48v-42.88a48 48 0 0 1 48-48h128.96v-57.28a40.384 40.384 0 1 1 19.2 0v57.312h142.08a48 48 0 0 1 48 48v42.912a48 48 0 0 1-48 48h-22.4v29.824a16.64 16.64 0 0 1-16.64 16.64z m2.688-19.2h8v-27.2h-8z m-206.752 0h8v-27.2h-8z m-62.528-118.144v42.912a28.8 28.8 0 0 0 28.64 28.64h290.368a28.8 28.8 0 0 0 28.64-28.64v-42.912a28.8 28.8 0 0 0-28.64-28.64h-290.368a28.8 28.8 0 0 0-28.64 28.64z m146.176-144.48a21.056 21.056 0 1 0 21.056-21.088 21.088 21.088 0 0 0-21.056 21.088z m158.336 177.312v-22.816a9.6 9.6 0 0 1 19.2 0v22.816a9.6 9.6 0 0 1-19.2 0z m-33.6 0v-22.816a9.6 9.6 0 0 1 19.2 0v22.816a9.6 9.6 0 0 1-19.2 0z m-33.568 0v-22.816a9.6 9.6 0 0 1 19.2 0v22.816a9.6 9.6 0 0 1-19.2 0z m-33.6 0v-22.816a9.6 9.6 0 0 1 19.2 0v22.816a9.6 9.6 0 0 1-19.2 0z m-33.568 0v-22.816a9.6 9.6 0 0 1 19.2 0v22.816a9.6 9.6 0 1 1-19.2 0z m-33.6 0v-22.816a9.6 9.6 0 0 1 19.2 0v22.816a9.6 9.6 0 0 1-19.2 0z m-33.568 0v-22.816a9.6 9.6 0 0 1 19.2 0v22.816a9.6 9.6 0 1 1-19.2 0z m-33.6 0v-22.816a9.6 9.6 0 0 1 19.2 0v22.816a9.6 9.6 0 0 1-19.2 0z m-33.568 0v-22.816a9.6 9.6 0 0 1 19.2 0v22.816a9.6 9.6 0 0 1-19.2 0z m54.016-210.496a14.368 14.368 0 0 1-0.32-18.496l0.32-0.352a100.032 100.032 0 0 1 154.496 0 14.336 14.336 0 0 1 0 18.496 10.56 10.56 0 0 1-16.288 0 78.88 78.88 0 0 0-121.952 0 10.56 10.56 0 0 1-16.288 0.352z m173.76-38.592a130.016 130.016 0 0 0-192.992 0 10.656 10.656 0 0 1-16-2.624 14.368 14.368 0 0 1 1.728-17.792 150.784 150.784 0 0 1 221.792 0 14.304 14.304 0 0 1 1.792 18.368 11.04 11.04 0 0 1-8.992 4.928 10.592 10.592 0 0 1-7.328-2.88z" fill="#5A6375" p-id="1067"></path></svg>